<svg xmlns="http://www.w3.org/2000/svg" width="92.5" height="92.5" viewBox="0 0 92.5 92.5">
  <g id="Group_4856" data-name="Group 4856" transform="translate(-164.25 0.25)">
    <circle id="Ellipse_35" data-name="Ellipse 35" cx="45.5" cy="45.5" r="45.5" transform="translate(165 0.5)" fill="rgba(255,255,255,0)" stroke="#72bfe6" stroke-linecap="round" stroke-linejoin="round" stroke-width="1.5"/>
    <g id="Group_4938" data-name="Group 4938" transform="translate(-144 -150.984)">
      <path id="Path_419" data-name="Path 419" d="M298.08,323.865a4.9,4.9,0,0,1-1.58,1.45,5,5,0,0,1-5-8.66,5.111,5.111,0,0,1,2.06-.65,4.994,4.994,0,0,1,4.52,7.86Z" transform="translate(42.5 -115)" fill="none" stroke="#72bfe6" stroke-linecap="round" stroke-linejoin="round" stroke-width="2"/>
      <path id="Path_420" data-name="Path 420" d="M296.5,298.655a5,5,0,1,1-6.83,1.83A5,5,0,0,1,296.5,298.655Z" transform="translate(42.5 -115)" fill="none" stroke="#72bfe6" stroke-linecap="round" stroke-linejoin="round" stroke-width="2"/>
      <path id="Path_421" data-name="Path 421" d="M329.51,323.485a5,5,0,0,1-6.83,1.83,4.931,4.931,0,0,1-1.58-1.46,4.991,4.991,0,0,1,4.54-7.85,5.182,5.182,0,0,1,2.04.65A5,5,0,0,1,329.51,323.485Z" transform="translate(42.5 -115)" fill="none" stroke="#72bfe6" stroke-linecap="round" stroke-linejoin="round" stroke-width="2"/>
      <path id="Path_422" data-name="Path 422" d="M314.59,293.985a5,5,0,0,1-9.54,2.09,4.88,4.88,0,0,1-.46-2.09,5,5,0,0,1,10,0Z" transform="translate(42.5 -115)" fill="none" stroke="#72bfe6" stroke-linecap="round" stroke-linejoin="round" stroke-width="2"/>
      <path id="Path_423" data-name="Path 423" d="M314.59,329.985a5.006,5.006,0,1,1-.46-2.09A4.88,4.88,0,0,1,314.59,329.985Z" transform="translate(42.5 -115)" fill="none" stroke="#72bfe6" stroke-linecap="round" stroke-linejoin="round" stroke-width="2"/>
      <line id="Line_47" data-name="Line 47" x1="7.952" y2="4.61" transform="translate(357.09 210.331)" fill="none" stroke="#72bfe6" stroke-linecap="round" stroke-linejoin="round" stroke-width="2"/>
      <line id="Line_48" data-name="Line 48" y1="4.263" x2="7.355" transform="translate(355.439 207.011)" fill="none" stroke="#72bfe6" stroke-linecap="round" stroke-linejoin="round" stroke-width="2"/>
      <line id="Line_49" data-name="Line 49" x1="6.98" y1="4.01" transform="translate(340.58 208.865)" fill="none" stroke="#72bfe6" stroke-linecap="round" stroke-linejoin="round" stroke-width="2"/>
      <line id="Line_50" data-name="Line 50" x2="0.019" y2="8.496" transform="translate(338.041 192.741)" fill="none" stroke="#72bfe6" stroke-linecap="round" stroke-linejoin="round" stroke-width="2"/>
      <line id="Line_51" data-name="Line 51" x1="0.02" y1="8.911" transform="translate(334.04 192.536)" fill="none" stroke="#72bfe6" stroke-linecap="round" stroke-linejoin="round" stroke-width="2"/>
      <line id="Line_52" data-name="Line 52" x1="6.96" y2="4.04" transform="translate(340.59 181.075)" fill="none" stroke="#72bfe6" stroke-linecap="round" stroke-linejoin="round" stroke-width="2"/>
      <path id="Path_424" data-name="Path 424" d="M335.994,303.085c-.551,4.393-2.736,8.543-7.353,9.09-1.652.2-2.249-.923-3.539-1.158-1.345-.244-2.112.4-3.6-.433-4.888-2.729-6.368-9.993-.638-14.5,2.68-2.106,6.223-1.633,9.028-3.333a6.577,6.577,0,0,0,2.677-3.766c.663,1.16,1.26,2.586,1.859,3.842A19.324,19.324,0,0,1,335.994,303.085Z" transform="translate(42.5 -115)" fill="none" stroke="#72bfe6" stroke-linecap="round" stroke-linejoin="round" stroke-width="2"/>
      <path id="Path_425" data-name="Path 425" d="M332.571,288.985a9.521,9.521,0,0,1-.409,3.8,21.09,21.09,0,0,1-2.528,4.068c-.953,1.379-2.876,3.549-3.541,5.086-1.357,3.132-1.092,5.828-1.009,9.076.01.377.017,4.579.019,4.972" transform="translate(42.5 -115)" fill="none" stroke="#72bfe6" stroke-linecap="round" stroke-linejoin="round" stroke-width="2"/>
    </g>
  </g>
</svg>
