<svg xmlns="http://www.w3.org/2000/svg" width="60.5" height="60.5" viewBox="0 0 60.5 60.5">
  <g id="Group_4839" data-name="Group 4839" transform="translate(-164.25 0.25)">
    <circle id="Ellipse_35" data-name="Ellipse 35" cx="29.5" cy="29.5" r="29.5" transform="translate(165 0.5)" fill="rgba(0,0,0,0)" stroke="#72bfe6" stroke-linecap="round" stroke-linejoin="round" stroke-width="1.5"/>
    <g id="arm" transform="translate(-13.5 -114)">
      <g id="Group_10" data-name="Group 10">
        <path id="Path_42" data-name="Path 42" d="M221.027,132.005a12.414,12.414,0,0,0-5.44,1.089,12.169,12.169,0,0,0-3.027,1.96c-1.922.261-3.858.587-5.758.97-2.237.452-4.486.995-6.684,1.614a1.9,1.9,0,0,1-1.678-.3l-2.84-2.13a1,1,0,1,0-1.2,1.6l2.84,2.131a3.877,3.877,0,0,0,2.333.78,4,4,0,0,0,1.088-.152c2.15-.606,4.349-1.137,6.536-1.578,1.958-.4,3.954-.728,5.934-.989a1.007,1.007,0,0,0,.55-.259,10.215,10.215,0,0,1,2.732-1.822,10.484,10.484,0,0,1,4.56-.911,1.025,1.025,0,0,0,1.027-.972A1,1,0,0,0,221.027,132.005Z" fill="#72bfe6"/>
        <path id="Path_43" data-name="Path 43" d="M215.965,148.742a27.745,27.745,0,0,1-.965-6.757,1,1,0,0,0-1.707-.688l-1.1,1.1a4.229,4.229,0,0,1-1.862,1.1,14.5,14.5,0,0,1-8.018-.1,2.573,2.573,0,0,0-2.486.525,1.16,1.16,0,0,1-.272.188,1.066,1.066,0,0,1-.3.1,1.215,1.215,0,0,1-1.027-.385l-2.525-2.525a1,1,0,1,0-1.414,1.414l2.525,2.525a3.171,3.171,0,0,0,2.8.938,3.1,3.1,0,0,0,.825-.274,3.152,3.152,0,0,0,.741-.51.577.577,0,0,1,.553-.079,16.5,16.5,0,0,0,9.121.115,6.154,6.154,0,0,0,2.265-1.179,29.707,29.707,0,0,0,.91,5.022c.194.71.419,1.427.669,2.132a4.8,4.8,0,0,1,.3,1.607v2a1,1,0,0,0,2,0v-2a6.813,6.813,0,0,0-.411-2.278C216.355,150.073,216.146,149.4,215.965,148.742Z" fill="#72bfe6"/>
        <path id="Path_44" data-name="Path 44" d="M209.707,148.293a1,1,0,0,0-1.414,0l-2,2a1,1,0,0,0,1.414,1.414l.293-.293V155a1,1,0,0,0,2,0v-3.586l.293.293a1,1,0,0,0,1.414-1.414Z" fill="#72bfe6"/>
        <path id="Path_45" data-name="Path 45" d="M202.707,148.293a1,1,0,0,0-1.414,0l-2,2a1,1,0,0,0,1.414,1.414l.293-.293V155a1,1,0,0,0,2,0v-3.586l.293.293a1,1,0,0,0,1.414-1.414Z" fill="#72bfe6"/>
      </g>
    </g>
  </g>
</svg>
