<svg xmlns="http://www.w3.org/2000/svg" width="60.5" height="60.5" viewBox="0 0 60.5 60.5">
  <g id="Group_4839" data-name="Group 4839" transform="translate(-164.25 0.25)">
    <circle id="Ellipse_35" data-name="Ellipse 35" cx="29.5" cy="29.5" r="29.5" transform="translate(165 0.5)" fill="rgba(0,0,0,0)" stroke="#72bfe6" stroke-linecap="round" stroke-linejoin="round" stroke-width="1.5"/>
    <path id="Path_159" data-name="Path 159" d="M873.918,1649.759c-3.7-10.722-12.641-12.91-13.079-13.01a5.219,5.219,0,0,1-3.007-2.107.341.341,0,1,0-.572.372,5.852,5.852,0,0,0,3.434,2.4c.416.1,9.032,2.2,12.6,12.622a4.129,4.129,0,0,1-2.689,2.276c-3.11-9.19-9.357-11.358-13.935-12.945-.275-.1-.541-.188-.8-.281.009-.115.015-.231.015-.348a2.187,2.187,0,0,0-.571-1.661c-.69-.664-1.876-.619-3.248-.566-.407.016-.828.032-1.263.032s-.856-.016-1.263-.032c-1.373-.053-2.558-.1-3.248.566a2.187,2.187,0,0,0-.571,1.661,4.926,4.926,0,0,0,5.082,4.74,5.413,5.413,0,0,0,1.276-.151,13.242,13.242,0,0,1,1.213,7.491c-2.116.187-3.791,2.335-3.791,4.951,0,2.738,1.835,4.965,4.09,4.965s4.09-2.228,4.09-4.965c0-2.577-1.626-4.7-3.7-4.942a13.844,13.844,0,0,0-1.232-7.711,4.861,4.861,0,0,0,3.011-3.344l.688.24c4.693,1.628,10.519,3.65,13.517,12.533-.2.069-.406.137-.609.2a8.85,8.85,0,0,0-2.451,1.081,13.828,13.828,0,0,0-4.469-7.5,9.982,9.982,0,0,0-3.358-1.892.342.342,0,0,0-.369.163c-1.063,1.849-.468,3.61.163,5.474a12.7,12.7,0,0,1,.923,5.159c-.337,4.675-3.154,8.069-6.7,8.069-3.692,0-6.7-3.609-6.7-8.045a12.735,12.735,0,0,1,.7-4.2c.479-1.535.826-2.645-.766-4.815a.341.341,0,1,0-.55.4c1.388,1.892,1.131,2.714.664,4.207a13.339,13.339,0,0,0-.73,4.4c0,4.812,3.31,8.727,7.379,8.727,3.911,0,7.015-3.66,7.378-8.7a13.261,13.261,0,0,0-.958-5.427c-.6-1.766-1.075-3.18-.348-4.67a9.975,9.975,0,0,1,2.831,1.67,13.349,13.349,0,0,1,4.341,7.552,2.147,2.147,0,0,0-.286,1.677c.682,3.672,3.654,6.237,5.9,6.243h.012c2.445,0,3.947-1.941,4.123-5.328C876.24,1654,875.284,1650.27,873.918,1649.759Zm-16.925,6.011c0,2.362-1.528,4.283-3.407,4.283s-3.407-1.922-3.407-4.283,1.529-4.283,3.407-4.283S856.993,1653.408,856.993,1655.77Zm-6.2-12.973a4.244,4.244,0,0,1-4.4-4.057,1.563,1.563,0,0,1,.362-1.17,2.56,2.56,0,0,1,1.729-.4c.318,0,.662.013,1.019.027.413.016.841.032,1.29.032s.876-.017,1.289-.032c1.217-.047,2.268-.087,2.749.376a1.563,1.563,0,0,1,.362,1.17A4.244,4.244,0,0,1,850.8,1642.8Zm24.6,14.165c-.091,1.75-.659,4.681-3.442,4.681h-.01c-1.742,0-4.573-2.17-5.226-5.685-.27-1.453.846-1.9,2.842-2.559,1.661-.55,3.531-1.17,4.284-2.91C874.608,1651.085,875.554,1654.049,875.4,1656.962Z" transform="translate(-666.216 -1619.515)" fill="none" stroke="#72bfe6" stroke-width="1"/>
  </g>
</svg>
