<svg xmlns="http://www.w3.org/2000/svg" width="60.5" height="60.5" viewBox="0 0 60.5 60.5">
  <g id="Group_4839" data-name="Group 4839" transform="translate(-164.25 0.25)">
    <circle id="Ellipse_35" data-name="Ellipse 35" cx="29.5" cy="29.5" r="29.5" transform="translate(165 0.5)" fill="rgba(0,0,0,0)" stroke="#72bfe6" stroke-linecap="round" stroke-linejoin="round" stroke-width="1.5"/>
    <g id="foot_massage" data-name="foot massage" transform="translate(-78.5 14)">
      <path id="Path_37" data-name="Path 37" d="M284.677,32.683H283.5l-.823-1.61v-.8a13.792,13.792,0,0,0-1.45-6.139L280.008,21.7V3.334a1.334,1.334,0,1,0-2.668,0V22.01a1.341,1.341,0,0,0,.14.6l1.359,2.719a11.112,11.112,0,0,1,1.169,4.947v.8a2.5,2.5,0,0,0,.264,1.119l.887,1.774a2.49,2.49,0,0,0,2.24,1.385h1.278a.667.667,0,0,1,0,1.334h-5.583a1.955,1.955,0,0,1-1.59-.858,29.261,29.261,0,0,0-6.237-6.529,5.04,5.04,0,0,1-1.932-4,5.1,5.1,0,0,1,.859-2.837l1.262-1.894a3.236,3.236,0,0,0,.547-1.8V12.83a7.681,7.681,0,0,0-.807-3.422,5.012,5.012,0,0,1-.527-2.229V3.334a1.334,1.334,0,1,0-2.668,0V7.179a7.682,7.682,0,0,0,.807,3.422,5.011,5.011,0,0,1,.527,2.229v5.934a.58.58,0,0,1-.1.321l-1.265,1.9a7.781,7.781,0,0,0,1.673,10.437,26.438,26.438,0,0,1,2.38,2.054c.382.372.732.775,1.093,1.17a1.282,1.282,0,0,0-.1.136,3.336,3.336,0,0,1-6.35-1.429,1.334,1.334,0,0,0-2.668,0,5.995,5.995,0,0,0,10.9,3.458c.135.184.285.355.415.542a4.626,4.626,0,0,0,3.782,2h5.583a3.335,3.335,0,0,0,0-6.67Z" transform="translate(-3 -5)" fill="#72bfe6"/>
    </g>
  </g>
</svg>
