<svg xmlns="http://www.w3.org/2000/svg" width="60.5" height="60.5" viewBox="0 0 60.5 60.5">
  <g id="Group_4839" data-name="Group 4839" transform="translate(-164.25 0.25)">
    <circle id="Ellipse_35" data-name="Ellipse 35" cx="29.5" cy="29.5" r="29.5" transform="translate(165 0.5)" fill="rgba(0,0,0,0)" stroke="#72bfe6" stroke-linecap="round" stroke-linejoin="round" stroke-width="1.5"/>
    <g id="bruise" transform="translate(-79.401 12.302)">
      <g id="Group_16" data-name="Group 16" transform="translate(258 4)">
        <path id="Path_61" data-name="Path 61" d="M280.128,4H259.136A1.135,1.135,0,0,0,258,5.136V17.63a1.135,1.135,0,0,0,.75,1.068,20.824,20.824,0,0,0,14.423-.007,19.578,19.578,0,0,0,3.188-1.567,8.806,8.806,0,0,0-.187,1.617,12.292,12.292,0,0,0,.985,4.618,18.738,18.738,0,0,1,1.289,5.694,19.278,19.278,0,0,1,0,2.142,1.135,1.135,0,0,0,1.134,1.2h9.086a1.136,1.136,0,0,0,1.136-1.136V13.675A9.686,9.686,0,0,0,280.128,4Zm7.4,26.124h-6.783c0-.4-.01-.8-.034-1.2A20.981,20.981,0,0,0,279.3,22.6a10.2,10.2,0,0,1-.853-3.806,8.536,8.536,0,0,1,2.032-5.006,1.136,1.136,0,0,0-1.714-1.486,17.612,17.612,0,0,1-6.4,4.271,18.4,18.4,0,0,1-12.087.245V6.272h19.856a7.412,7.412,0,0,1,7.4,7.4Z" transform="translate(-258 -4)" fill="#72bfe6" stroke="#fff" stroke-width="1"/>
        <path id="Path_62" data-name="Path 62" d="M270,9h-1a2,2,0,0,0-2-2h-4a2,2,0,0,0-2,2v1a2,2,0,0,0,2,2h2a2,2,0,0,0,2,2h3a2,2,0,0,0,2-2V11A2,2,0,0,0,270,9Zm0,3h-3a2,2,0,0,0-2-2h-2V9h4a2,2,0,0,0,2,2h1Z" transform="translate(-258 -4)" fill="#72bfe6" stroke="#fff" stroke-width="1"/>
      </g>
    </g>
  </g>
</svg>
