<svg xmlns="http://www.w3.org/2000/svg" width="60.5" height="60.5" viewBox="0 0 60.5 60.5">
  <g id="Group_4839" data-name="Group 4839" transform="translate(-164.25 0.25)">
    <circle id="Ellipse_35" data-name="Ellipse 35" cx="29.5" cy="29.5" r="29.5" transform="translate(165 0.5)" fill="rgba(0,0,0,0)" stroke="#72bfe6" stroke-linecap="round" stroke-linejoin="round" stroke-width="1.5"/>
    <g id="elbow" transform="translate(50.83 14.364)">
      <path id="Path_40" data-name="Path 40" d="M159.551,12.185c-.255-3.07-.642-6.176-1.155-9.231A1.143,1.143,0,0,0,157.27,2h-6.853a1.145,1.145,0,0,0-1.107.858,37.7,37.7,0,0,0-.566,16.281,12.86,12.86,0,0,0-3.9-1.14,8.576,8.576,0,0,0-2.453.029,6.091,6.091,0,0,1-2.072-.022,13.268,13.268,0,0,1-2.452-.67,5.894,5.894,0,0,0-6.457.921,1.146,1.146,0,0,0-.41.877V32.839a1.143,1.143,0,0,0,1.653,1.022l2.95-1.476a6.548,6.548,0,0,1,2.917-.689h7.328a1.142,1.142,0,0,0,0-2.284H138.52a8.861,8.861,0,0,0-3.938.93l-1.3.649V19.7a3.88,3.88,0,0,1,1.374-.593,4.191,4.191,0,0,1,2.452.381,15.55,15.55,0,0,0,2.845.77,8.216,8.216,0,0,0,2.734.032,6.313,6.313,0,0,1,1.879-.025,11.677,11.677,0,0,1,5.2,2.09,1.142,1.142,0,0,0,1.754-1.226,35.422,35.422,0,0,1-.21-16.847H156.3c.425,2.685.754,5.4.975,8.09a109.8,109.8,0,0,1,.338,11.327h-.342a6.86,6.86,0,0,0-6.853,6.853,1.142,1.142,0,0,0,1.142,1.142h2.352a5.914,5.914,0,0,0,5.926-5.68A112.447,112.447,0,0,0,159.551,12.185Zm-5.64,17.228h-1.047a4.564,4.564,0,0,1,4.407-3.427h.275A3.631,3.631,0,0,1,153.911,29.413Z" transform="translate(-2.13 -2.355)" fill="#72bfe6"/>
    </g>
  </g>
</svg>
