<svg xmlns="http://www.w3.org/2000/svg" width="612.284" height="320.284" viewBox="0 0 612.284 320.284">
  <g id="Group_4966" data-name="Group 4966" transform="translate(-133.608 -1327.858)">
    <path id="Union_1" data-name="Union 1" d="M7.733,16V8.266H0V7.733H7.733V0h.533V7.733H16v.533H8.266V16Z" transform="translate(147.75 1330.686) rotate(45)" fill="#72bfe6"/>
    <path id="Union_1-2" data-name="Union 1" d="M7.733,16V8.266H0V7.733H7.733V0h.533V7.733H16v.533H8.266V16Z" transform="translate(220.75 1330.686) rotate(45)" fill="#72bfe6"/>
    <path id="Union_1-3" data-name="Union 1" d="M7.733,16V8.266H0V7.733H7.733V0h.533V7.733H16v.533H8.266V16Z" transform="translate(293.75 1330.686) rotate(45)" fill="#72bfe6"/>
    <path id="Union_1-4" data-name="Union 1" d="M7.733,16V8.266H0V7.733H7.733V0h.533V7.733H16v.533H8.266V16Z" transform="translate(366.75 1330.686) rotate(45)" fill="#72bfe6"/>
    <path id="Union_1-5" data-name="Union 1" d="M7.733,16V8.266H0V7.733H7.733V0h.533V7.733H16v.533H8.266V16Z" transform="translate(439.75 1330.686) rotate(45)" fill="#72bfe6"/>
    <path id="Union_1-6" data-name="Union 1" d="M7.733,16V8.266H0V7.733H7.733V0h.533V7.733H16v.533H8.266V16Z" transform="translate(512.75 1330.686) rotate(45)" fill="#72bfe6"/>
    <path id="Union_1-7" data-name="Union 1" d="M7.733,16V8.266H0V7.733H7.733V0h.533V7.733H16v.533H8.266V16Z" transform="translate(658.75 1330.686) rotate(45)" fill="#72bfe6"/>
    <path id="Union_1-8" data-name="Union 1" d="M7.733,16V8.266H0V7.733H7.733V0h.533V7.733H16v.533H8.266V16Z" transform="translate(731.75 1330.686) rotate(45)" fill="#72bfe6"/>
    <path id="Union_1-9" data-name="Union 1" d="M7.733,16V8.266H0V7.733H7.733V0h.533V7.733H16v.533H8.266V16Z" transform="translate(147.75 1403.686) rotate(45)" fill="#72bfe6"/>
    <path id="Union_1-10" data-name="Union 1" d="M7.733,16V8.266H0V7.733H7.733V0h.533V7.733H16v.533H8.266V16Z" transform="translate(220.75 1403.686) rotate(45)" fill="#72bfe6"/>
    <path id="Union_1-11" data-name="Union 1" d="M7.733,16V8.266H0V7.733H7.733V0h.533V7.733H16v.533H8.266V16Z" transform="translate(293.75 1403.686) rotate(45)" fill="#72bfe6"/>
    <path id="Union_1-12" data-name="Union 1" d="M7.733,16V8.266H0V7.733H7.733V0h.533V7.733H16v.533H8.266V16Z" transform="translate(366.75 1403.686) rotate(45)" fill="#72bfe6"/>
    <path id="Union_1-13" data-name="Union 1" d="M7.733,16V8.266H0V7.733H7.733V0h.533V7.733H16v.533H8.266V16Z" transform="translate(512.75 1403.686) rotate(45)" fill="#72bfe6"/>
    <path id="Union_1-14" data-name="Union 1" d="M7.733,16V8.266H0V7.733H7.733V0h.533V7.733H16v.533H8.266V16Z" transform="translate(585.75 1403.686) rotate(45)" fill="#72bfe6"/>
    <path id="Union_1-15" data-name="Union 1" d="M7.733,16V8.266H0V7.733H7.733V0h.533V7.733H16v.533H8.266V16Z" transform="translate(658.75 1403.686) rotate(45)" fill="#72bfe6"/>
    <path id="Union_1-16" data-name="Union 1" d="M7.733,16V8.266H0V7.733H7.733V0h.533V7.733H16v.533H8.266V16Z" transform="translate(147.75 1476.686) rotate(45)" fill="#72bfe6"/>
    <path id="Union_1-17" data-name="Union 1" d="M7.733,16V8.266H0V7.733H7.733V0h.533V7.733H16v.533H8.266V16Z" transform="translate(220.75 1476.686) rotate(45)" fill="#72bfe6"/>
    <path id="Union_1-18" data-name="Union 1" d="M7.733,16V8.266H0V7.733H7.733V0h.533V7.733H16v.533H8.266V16Z" transform="translate(293.75 1476.686) rotate(45)" fill="#72bfe6"/>
    <path id="Union_1-19" data-name="Union 1" d="M7.733,16V8.266H0V7.733H7.733V0h.533V7.733H16v.533H8.266V16Z" transform="translate(439.75 1476.686) rotate(45)" fill="#72bfe6"/>
    <path id="Union_1-20" data-name="Union 1" d="M7.733,16V8.266H0V7.733H7.733V0h.533V7.733H16v.533H8.266V16Z" transform="translate(512.75 1476.686) rotate(45)" fill="#72bfe6"/>
    <path id="Union_1-21" data-name="Union 1" d="M7.733,16V8.266H0V7.733H7.733V0h.533V7.733H16v.533H8.266V16Z" transform="translate(585.75 1476.686) rotate(45)" fill="#72bfe6"/>
    <path id="Union_1-22" data-name="Union 1" d="M7.733,16V8.266H0V7.733H7.733V0h.533V7.733H16v.533H8.266V16Z" transform="translate(658.75 1476.686) rotate(45)" fill="#72bfe6"/>
    <path id="Union_1-23" data-name="Union 1" d="M7.733,16V8.266H0V7.733H7.733V0h.533V7.733H16v.533H8.266V16Z" transform="translate(731.75 1476.686) rotate(45)" fill="#72bfe6"/>
    <path id="Union_1-24" data-name="Union 1" d="M7.733,16V8.266H0V7.733H7.733V0h.533V7.733H16v.533H8.266V16Z" transform="translate(220.75 1549.686) rotate(45)" fill="#72bfe6"/>
    <path id="Union_1-25" data-name="Union 1" d="M7.733,16V8.266H0V7.733H7.733V0h.533V7.733H16v.533H8.266V16Z" transform="translate(293.75 1549.686) rotate(45)" fill="#72bfe6"/>
    <path id="Union_1-26" data-name="Union 1" d="M7.733,16V8.266H0V7.733H7.733V0h.533V7.733H16v.533H8.266V16Z" transform="translate(366.75 1549.686) rotate(45)" fill="#72bfe6"/>
    <path id="Union_1-27" data-name="Union 1" d="M7.733,16V8.266H0V7.733H7.733V0h.533V7.733H16v.533H8.266V16Z" transform="translate(439.75 1549.686) rotate(45)" fill="#72bfe6"/>
    <path id="Union_1-28" data-name="Union 1" d="M7.733,16V8.266H0V7.733H7.733V0h.533V7.733H16v.533H8.266V16Z" transform="translate(512.75 1549.686) rotate(45)" fill="#72bfe6"/>
    <path id="Union_1-29" data-name="Union 1" d="M7.733,16V8.266H0V7.733H7.733V0h.533V7.733H16v.533H8.266V16Z" transform="translate(585.75 1549.686) rotate(45)" fill="#72bfe6"/>
    <path id="Union_1-30" data-name="Union 1" d="M7.733,16V8.266H0V7.733H7.733V0h.533V7.733H16v.533H8.266V16Z" transform="translate(658.75 1549.686) rotate(45)" fill="#72bfe6"/>
    <path id="Union_1-31" data-name="Union 1" d="M7.733,16V8.266H0V7.733H7.733V0h.533V7.733H16v.533H8.266V16Z" transform="translate(147.75 1622.686) rotate(45)" fill="#72bfe6"/>
    <path id="Union_1-32" data-name="Union 1" d="M7.733,16V8.266H0V7.733H7.733V0h.533V7.733H16v.533H8.266V16Z" transform="translate(220.75 1622.686) rotate(45)" fill="#72bfe6"/>
    <path id="Union_1-33" data-name="Union 1" d="M7.733,16V8.266H0V7.733H7.733V0h.533V7.733H16v.533H8.266V16Z" transform="translate(293.75 1622.686) rotate(45)" fill="#72bfe6"/>
    <path id="Union_1-34" data-name="Union 1" d="M7.733,16V8.266H0V7.733H7.733V0h.533V7.733H16v.533H8.266V16Z" transform="translate(366.75 1622.686) rotate(45)" fill="#72bfe6"/>
    <path id="Union_1-35" data-name="Union 1" d="M7.733,16V8.266H0V7.733H7.733V0h.533V7.733H16v.533H8.266V16Z" transform="translate(439.75 1622.686) rotate(45)" fill="#72bfe6"/>
    <path id="Union_1-36" data-name="Union 1" d="M7.733,16V8.266H0V7.733H7.733V0h.533V7.733H16v.533H8.266V16Z" transform="translate(585.75 1622.686) rotate(45)" fill="#72bfe6"/>
    <path id="Union_1-37" data-name="Union 1" d="M7.733,16V8.266H0V7.733H7.733V0h.533V7.733H16v.533H8.266V16Z" transform="translate(658.75 1622.686) rotate(45)" fill="#72bfe6"/>
    <path id="Union_1-38" data-name="Union 1" d="M7.733,16V8.266H0V7.733H7.733V0h.533V7.733H16v.533H8.266V16Z" transform="translate(731.75 1622.686) rotate(45)" fill="#72bfe6"/>
    <g id="Group_29" data-name="Group 29">
      <g id="Union_1-39" data-name="Union 1" transform="translate(585.75 1330.686) rotate(45)" fill="#ffae44">
        <path d="M 9.26648998260498 16.99970054626465 L 8.26648998260498 16.99970054626465 L 7.733209609985352 16.99970054626465 L 6.733209609985352 16.99970054626465 L 6.733209609985352 15.99969959259033 L 6.733209609985352 9.26648998260498 L -2.037048290048915e-07 9.26648998260498 L -1.000000238418579 9.26648998260498 L -1.000000238418579 8.26648998260498 L -1.000000238418579 7.733209609985352 L -1.000000238418579 6.733209609985352 L -2.037048290048915e-07 6.733209609985352 L 6.733209609985352 6.733209609985352 L 6.733209609985352 -2.037048290048915e-07 L 6.733209609985352 -1.000000238418579 L 7.733209609985352 -1.000000238418579 L 8.26648998260498 -1.000000238418579 L 9.26648998260498 -1.000000238418579 L 9.26648998260498 -2.037048290048915e-07 L 9.26648998260498 6.733209609985352 L 15.99969959259033 6.733209609985352 L 16.99970054626465 6.733209609985352 L 16.99970054626465 7.733209609985352 L 16.99970054626465 8.26648998260498 L 16.99970054626465 9.26648998260498 L 15.99969959259033 9.26648998260498 L 9.26648998260498 9.26648998260498 L 9.26648998260498 15.99969959259033 L 9.26648998260498 16.99970054626465 Z" stroke="none"/>
        <path d="M 8.26648998260498 15.99969959259033 L 8.26648998260498 8.26648998260498 L 15.99969959259033 8.26648998260498 L 15.99969959259033 7.733209609985352 L 8.26648998260498 7.733209609985352 L 8.26648998260498 -2.037048290048915e-07 L 7.733209609985352 -2.037048290048915e-07 L 7.733209609985352 7.733209609985352 L -2.037048290048915e-07 7.733209609985352 L -2.037048290048915e-07 8.26648998260498 L 7.733209609985352 8.26648998260498 L 7.733209609985352 15.99969959259033 L 8.26648998260498 15.99969959259033 M 10.26648998260498 17.99970054626465 L 5.733209609985352 17.99970054626465 L 5.733209609985352 10.26648998260498 L -2.000000238418579 10.26648998260498 L -2.000000238418579 5.733209609985352 L 5.733209609985352 5.733209609985352 L 5.733209609985352 -2.000000238418579 L 10.26648998260498 -2.000000238418579 L 10.26648998260498 5.733209609985352 L 17.99970054626465 5.733209609985352 L 17.99970054626465 10.26648998260498 L 10.26648998260498 10.26648998260498 L 10.26648998260498 17.99970054626465 Z" stroke="none" fill="#ffae42"/>
      </g>
      <g id="Union_1-40" data-name="Union 1" transform="translate(439.75 1403.686) rotate(45)" fill="#ffae44">
        <path d="M 9.26648998260498 16.99970054626465 L 8.26648998260498 16.99970054626465 L 7.733209609985352 16.99970054626465 L 6.733209609985352 16.99970054626465 L 6.733209609985352 15.99969959259033 L 6.733209609985352 9.26648998260498 L -2.037048290048915e-07 9.26648998260498 L -1.000000238418579 9.26648998260498 L -1.000000238418579 8.26648998260498 L -1.000000238418579 7.733209609985352 L -1.000000238418579 6.733209609985352 L -2.037048290048915e-07 6.733209609985352 L 6.733209609985352 6.733209609985352 L 6.733209609985352 -2.037048290048915e-07 L 6.733209609985352 -1.000000238418579 L 7.733209609985352 -1.000000238418579 L 8.26648998260498 -1.000000238418579 L 9.26648998260498 -1.000000238418579 L 9.26648998260498 -2.037048290048915e-07 L 9.26648998260498 6.733209609985352 L 15.99969959259033 6.733209609985352 L 16.99970054626465 6.733209609985352 L 16.99970054626465 7.733209609985352 L 16.99970054626465 8.26648998260498 L 16.99970054626465 9.26648998260498 L 15.99969959259033 9.26648998260498 L 9.26648998260498 9.26648998260498 L 9.26648998260498 15.99969959259033 L 9.26648998260498 16.99970054626465 Z" stroke="none"/>
        <path d="M 8.26648998260498 15.99969959259033 L 8.26648998260498 8.26648998260498 L 15.99969959259033 8.26648998260498 L 15.99969959259033 7.733209609985352 L 8.26648998260498 7.733209609985352 L 8.26648998260498 -2.037048290048915e-07 L 7.733209609985352 -2.037048290048915e-07 L 7.733209609985352 7.733209609985352 L -2.037048290048915e-07 7.733209609985352 L -2.037048290048915e-07 8.26648998260498 L 7.733209609985352 8.26648998260498 L 7.733209609985352 15.99969959259033 L 8.26648998260498 15.99969959259033 M 10.26648998260498 17.99970054626465 L 5.733209609985352 17.99970054626465 L 5.733209609985352 10.26648998260498 L -2.000000238418579 10.26648998260498 L -2.000000238418579 5.733209609985352 L 5.733209609985352 5.733209609985352 L 5.733209609985352 -2.000000238418579 L 10.26648998260498 -2.000000238418579 L 10.26648998260498 5.733209609985352 L 17.99970054626465 5.733209609985352 L 17.99970054626465 10.26648998260498 L 10.26648998260498 10.26648998260498 L 10.26648998260498 17.99970054626465 Z" stroke="none" fill="#ffae42"/>
      </g>
      <g id="Union_1-41" data-name="Union 1" transform="translate(731.75 1403.686) rotate(45)" fill="#ffae44">
        <path d="M 9.266500473022461 17.00020027160645 L 8.266500473022461 17.00020027160645 L 7.733700275421143 17.00020027160645 L 6.733700275421143 17.00020027160645 L 6.733700275421143 16.00020027160645 L 6.733700275421143 9.266500473022461 L 1.358032193365943e-07 9.266500473022461 L -0.9999998807907104 9.266500473022461 L -0.9999998807907104 8.266500473022461 L -0.9999998807907104 7.733700275421143 L -0.9999998807907104 6.733700275421143 L 1.358032193365943e-07 6.733700275421143 L 6.733700275421143 6.733700275421143 L 6.733700275421143 1.358032193365943e-07 L 6.733700275421143 -0.9999998807907104 L 7.733700275421143 -0.9999998807907104 L 8.266500473022461 -0.9999998807907104 L 9.266500473022461 -0.9999998807907104 L 9.266500473022461 1.358032193365943e-07 L 9.266500473022461 6.733700275421143 L 16.00020027160645 6.733700275421143 L 17.00020027160645 6.733700275421143 L 17.00020027160645 7.733700275421143 L 17.00020027160645 8.266500473022461 L 17.00020027160645 9.266500473022461 L 16.00020027160645 9.266500473022461 L 9.266500473022461 9.266500473022461 L 9.266500473022461 16.00020027160645 L 9.266500473022461 17.00020027160645 Z" stroke="none"/>
        <path d="M 8.266500473022461 16.00020027160645 L 8.266500473022461 8.266500473022461 L 16.00020027160645 8.266500473022461 L 16.00020027160645 7.733700275421143 L 8.266500473022461 7.733700275421143 L 8.266500473022461 1.358032193365943e-07 L 7.733700275421143 1.358032193365943e-07 L 7.733700275421143 7.733700275421143 L 1.358032193365943e-07 7.733700275421143 L 1.358032193365943e-07 8.266500473022461 L 7.733700275421143 8.266500473022461 L 7.733700275421143 16.00020027160645 L 8.266500473022461 16.00020027160645 M 10.26650047302246 18.00020027160645 L 5.733700275421143 18.00020027160645 L 5.733700275421143 10.26650047302246 L -1.99999988079071 10.26650047302246 L -1.99999988079071 5.733700275421143 L 5.733700275421143 5.733700275421143 L 5.733700275421143 -1.99999988079071 L 10.26650047302246 -1.99999988079071 L 10.26650047302246 5.733700275421143 L 18.00020027160645 5.733700275421143 L 18.00020027160645 10.26650047302246 L 10.26650047302246 10.26650047302246 L 10.26650047302246 18.00020027160645 Z" stroke="none" fill="#ffae42"/>
      </g>
      <g id="Union_1-42" data-name="Union 1" transform="translate(366.75 1476.686) rotate(45)" fill="#ffae44">
        <path d="M 9.26648998260498 16.99970054626465 L 8.26648998260498 16.99970054626465 L 7.733209609985352 16.99970054626465 L 6.733209609985352 16.99970054626465 L 6.733209609985352 15.99969959259033 L 6.733209609985352 9.26648998260498 L -2.037048290048915e-07 9.26648998260498 L -1.000000238418579 9.26648998260498 L -1.000000238418579 8.26648998260498 L -1.000000238418579 7.733209609985352 L -1.000000238418579 6.733209609985352 L -2.037048290048915e-07 6.733209609985352 L 6.733209609985352 6.733209609985352 L 6.733209609985352 -2.037048290048915e-07 L 6.733209609985352 -1.000000238418579 L 7.733209609985352 -1.000000238418579 L 8.26648998260498 -1.000000238418579 L 9.26648998260498 -1.000000238418579 L 9.26648998260498 -2.037048290048915e-07 L 9.26648998260498 6.733209609985352 L 15.99969959259033 6.733209609985352 L 16.99970054626465 6.733209609985352 L 16.99970054626465 7.733209609985352 L 16.99970054626465 8.26648998260498 L 16.99970054626465 9.26648998260498 L 15.99969959259033 9.26648998260498 L 9.26648998260498 9.26648998260498 L 9.26648998260498 15.99969959259033 L 9.26648998260498 16.99970054626465 Z" stroke="none"/>
        <path d="M 8.26648998260498 15.99969959259033 L 8.26648998260498 8.26648998260498 L 15.99969959259033 8.26648998260498 L 15.99969959259033 7.733209609985352 L 8.26648998260498 7.733209609985352 L 8.26648998260498 -2.037048290048915e-07 L 7.733209609985352 -2.037048290048915e-07 L 7.733209609985352 7.733209609985352 L -2.037048290048915e-07 7.733209609985352 L -2.037048290048915e-07 8.26648998260498 L 7.733209609985352 8.26648998260498 L 7.733209609985352 15.99969959259033 L 8.26648998260498 15.99969959259033 M 10.26648998260498 17.99970054626465 L 5.733209609985352 17.99970054626465 L 5.733209609985352 10.26648998260498 L -2.000000238418579 10.26648998260498 L -2.000000238418579 5.733209609985352 L 5.733209609985352 5.733209609985352 L 5.733209609985352 -2.000000238418579 L 10.26648998260498 -2.000000238418579 L 10.26648998260498 5.733209609985352 L 17.99970054626465 5.733209609985352 L 17.99970054626465 10.26648998260498 L 10.26648998260498 10.26648998260498 L 10.26648998260498 17.99970054626465 Z" stroke="none" fill="#ffae42"/>
      </g>
      <g id="Union_1-43" data-name="Union 1" transform="translate(147.75 1549.686) rotate(45)" fill="#ffae44">
        <path d="M 9.26648998260498 16.99970054626465 L 8.26648998260498 16.99970054626465 L 7.733209609985352 16.99970054626465 L 6.733209609985352 16.99970054626465 L 6.733209609985352 15.99969959259033 L 6.733209609985352 9.26648998260498 L -2.037048290048915e-07 9.26648998260498 L -1.000000238418579 9.26648998260498 L -1.000000238418579 8.26648998260498 L -1.000000238418579 7.733209609985352 L -1.000000238418579 6.733209609985352 L -2.037048290048915e-07 6.733209609985352 L 6.733209609985352 6.733209609985352 L 6.733209609985352 -2.037048290048915e-07 L 6.733209609985352 -1.000000238418579 L 7.733209609985352 -1.000000238418579 L 8.26648998260498 -1.000000238418579 L 9.26648998260498 -1.000000238418579 L 9.26648998260498 -2.037048290048915e-07 L 9.26648998260498 6.733209609985352 L 15.99969959259033 6.733209609985352 L 16.99970054626465 6.733209609985352 L 16.99970054626465 7.733209609985352 L 16.99970054626465 8.26648998260498 L 16.99970054626465 9.26648998260498 L 15.99969959259033 9.26648998260498 L 9.26648998260498 9.26648998260498 L 9.26648998260498 15.99969959259033 L 9.26648998260498 16.99970054626465 Z" stroke="none"/>
        <path d="M 8.26648998260498 15.99969959259033 L 8.26648998260498 8.26648998260498 L 15.99969959259033 8.26648998260498 L 15.99969959259033 7.733209609985352 L 8.26648998260498 7.733209609985352 L 8.26648998260498 -2.037048290048915e-07 L 7.733209609985352 -2.037048290048915e-07 L 7.733209609985352 7.733209609985352 L -2.037048290048915e-07 7.733209609985352 L -2.037048290048915e-07 8.26648998260498 L 7.733209609985352 8.26648998260498 L 7.733209609985352 15.99969959259033 L 8.26648998260498 15.99969959259033 M 10.26648998260498 17.99970054626465 L 5.733209609985352 17.99970054626465 L 5.733209609985352 10.26648998260498 L -2.000000238418579 10.26648998260498 L -2.000000238418579 5.733209609985352 L 5.733209609985352 5.733209609985352 L 5.733209609985352 -2.000000238418579 L 10.26648998260498 -2.000000238418579 L 10.26648998260498 5.733209609985352 L 17.99970054626465 5.733209609985352 L 17.99970054626465 10.26648998260498 L 10.26648998260498 10.26648998260498 L 10.26648998260498 17.99970054626465 Z" stroke="none" fill="#ffae42"/>
      </g>
      <g id="Union_1-44" data-name="Union 1" transform="translate(731.75 1549.686) rotate(45)" fill="#ffae44">
        <path d="M 9.26648998260498 16.99970054626465 L 8.26648998260498 16.99970054626465 L 7.733209609985352 16.99970054626465 L 6.733209609985352 16.99970054626465 L 6.733209609985352 15.99969959259033 L 6.733209609985352 9.26648998260498 L -2.037048290048915e-07 9.26648998260498 L -1.000000238418579 9.26648998260498 L -1.000000238418579 8.26648998260498 L -1.000000238418579 7.733209609985352 L -1.000000238418579 6.733209609985352 L -2.037048290048915e-07 6.733209609985352 L 6.733209609985352 6.733209609985352 L 6.733209609985352 -2.037048290048915e-07 L 6.733209609985352 -1.000000238418579 L 7.733209609985352 -1.000000238418579 L 8.26648998260498 -1.000000238418579 L 9.26648998260498 -1.000000238418579 L 9.26648998260498 -2.037048290048915e-07 L 9.26648998260498 6.733209609985352 L 15.99969959259033 6.733209609985352 L 16.99970054626465 6.733209609985352 L 16.99970054626465 7.733209609985352 L 16.99970054626465 8.26648998260498 L 16.99970054626465 9.26648998260498 L 15.99969959259033 9.26648998260498 L 9.26648998260498 9.26648998260498 L 9.26648998260498 15.99969959259033 L 9.26648998260498 16.99970054626465 Z" stroke="none"/>
        <path d="M 8.26648998260498 15.99969959259033 L 8.26648998260498 8.26648998260498 L 15.99969959259033 8.26648998260498 L 15.99969959259033 7.733209609985352 L 8.26648998260498 7.733209609985352 L 8.26648998260498 -2.037048290048915e-07 L 7.733209609985352 -2.037048290048915e-07 L 7.733209609985352 7.733209609985352 L -2.037048290048915e-07 7.733209609985352 L -2.037048290048915e-07 8.26648998260498 L 7.733209609985352 8.26648998260498 L 7.733209609985352 15.99969959259033 L 8.26648998260498 15.99969959259033 M 10.26648998260498 17.99970054626465 L 5.733209609985352 17.99970054626465 L 5.733209609985352 10.26648998260498 L -2.000000238418579 10.26648998260498 L -2.000000238418579 5.733209609985352 L 5.733209609985352 5.733209609985352 L 5.733209609985352 -2.000000238418579 L 10.26648998260498 -2.000000238418579 L 10.26648998260498 5.733209609985352 L 17.99970054626465 5.733209609985352 L 17.99970054626465 10.26648998260498 L 10.26648998260498 10.26648998260498 L 10.26648998260498 17.99970054626465 Z" stroke="none" fill="#ffae42"/>
      </g>
      <g id="Union_1-45" data-name="Union 1" transform="translate(512.75 1622.686) rotate(45)" fill="#ffae44">
        <path d="M 9.26648998260498 16.99970054626465 L 8.26648998260498 16.99970054626465 L 7.733209609985352 16.99970054626465 L 6.733209609985352 16.99970054626465 L 6.733209609985352 15.99969959259033 L 6.733209609985352 9.26648998260498 L -2.037048290048915e-07 9.26648998260498 L -1.000000238418579 9.26648998260498 L -1.000000238418579 8.26648998260498 L -1.000000238418579 7.733209609985352 L -1.000000238418579 6.733209609985352 L -2.037048290048915e-07 6.733209609985352 L 6.733209609985352 6.733209609985352 L 6.733209609985352 -2.037048290048915e-07 L 6.733209609985352 -1.000000238418579 L 7.733209609985352 -1.000000238418579 L 8.26648998260498 -1.000000238418579 L 9.26648998260498 -1.000000238418579 L 9.26648998260498 -2.037048290048915e-07 L 9.26648998260498 6.733209609985352 L 15.99969959259033 6.733209609985352 L 16.99970054626465 6.733209609985352 L 16.99970054626465 7.733209609985352 L 16.99970054626465 8.26648998260498 L 16.99970054626465 9.26648998260498 L 15.99969959259033 9.26648998260498 L 9.26648998260498 9.26648998260498 L 9.26648998260498 15.99969959259033 L 9.26648998260498 16.99970054626465 Z" stroke="none"/>
        <path d="M 8.26648998260498 15.99969959259033 L 8.26648998260498 8.26648998260498 L 15.99969959259033 8.26648998260498 L 15.99969959259033 7.733209609985352 L 8.26648998260498 7.733209609985352 L 8.26648998260498 -2.037048290048915e-07 L 7.733209609985352 -2.037048290048915e-07 L 7.733209609985352 7.733209609985352 L -2.037048290048915e-07 7.733209609985352 L -2.037048290048915e-07 8.26648998260498 L 7.733209609985352 8.26648998260498 L 7.733209609985352 15.99969959259033 L 8.26648998260498 15.99969959259033 M 10.26648998260498 17.99970054626465 L 5.733209609985352 17.99970054626465 L 5.733209609985352 10.26648998260498 L -2.000000238418579 10.26648998260498 L -2.000000238418579 5.733209609985352 L 5.733209609985352 5.733209609985352 L 5.733209609985352 -2.000000238418579 L 10.26648998260498 -2.000000238418579 L 10.26648998260498 5.733209609985352 L 17.99970054626465 5.733209609985352 L 17.99970054626465 10.26648998260498 L 10.26648998260498 10.26648998260498 L 10.26648998260498 17.99970054626465 Z" stroke="none" fill="#ffae42"/>
      </g>
    </g>
  </g>
</svg>
