<svg xmlns="http://www.w3.org/2000/svg" width="18.494" height="21.576" viewBox="0 0 18.494 21.576">
  <path id="Icon_metro-file-pdf" data-name="Icon metro-file-pdf" d="M20.246,6.779a2.8,2.8,0,0,1,.578.915,2.779,2.779,0,0,1,.241,1.06v13.87a1.151,1.151,0,0,1-1.156,1.156H3.727a1.151,1.151,0,0,1-1.156-1.156V3.359A1.151,1.151,0,0,1,3.727,2.2H14.515a2.779,2.779,0,0,1,1.06.241,2.8,2.8,0,0,1,.915.578ZM14.9,3.841V8.368h4.527a1.315,1.315,0,0,0-.265-.494L15.393,4.106a1.315,1.315,0,0,0-.494-.265Zm4.623,18.4V9.909H14.514a1.151,1.151,0,0,1-1.156-1.156V3.745H4.112V22.238H19.523ZM13.335,15.1a9.161,9.161,0,0,0,1.011.674,11.948,11.948,0,0,1,1.409-.084q1.77,0,2.131.59a.582.582,0,0,1,.024.626.035.035,0,0,1-.012.024l-.024.024v.012q-.072.458-.855.458a4.967,4.967,0,0,1-1.385-.241,8.779,8.779,0,0,1-1.565-.638,21.68,21.68,0,0,0-4.72,1Q7.507,20.7,6.436,20.7a.7.7,0,0,1-.337-.084l-.289-.144q-.012-.012-.072-.06a.5.5,0,0,1-.072-.433,2.615,2.615,0,0,1,.674-1.1,5.819,5.819,0,0,1,1.589-1.162.176.176,0,0,1,.277.072.069.069,0,0,1,.024.048q.626-1.023,1.288-2.372a18.376,18.376,0,0,0,1.252-3.154,9.733,9.733,0,0,1-.367-1.92,4.681,4.681,0,0,1,.078-1.535q.132-.482.506-.482h.265a.508.508,0,0,1,.421.181.962.962,0,0,1,.108.819.261.261,0,0,1-.048.1.313.313,0,0,1,.012.1v.361a15.766,15.766,0,0,1-.169,2.312A6.091,6.091,0,0,0,13.335,15.1ZM6.4,20.047a5.316,5.316,0,0,0,1.649-1.9A6.863,6.863,0,0,0,7,19.156,4,4,0,0,0,6.4,20.047ZM11.191,8.97a3.58,3.58,0,0,0-.024,1.589q.012-.084.084-.53,0-.036.084-.518a.271.271,0,0,1,.048-.1.035.035,0,0,1-.012-.024.024.024,0,0,0-.006-.018.024.024,0,0,1-.006-.018.693.693,0,0,0-.157-.433.035.035,0,0,1-.012.024V8.97ZM9.7,16.929a17.66,17.66,0,0,1,3.419-.975,1.816,1.816,0,0,1-.157-.114,2.156,2.156,0,0,1-.193-.163,6.378,6.378,0,0,1-1.529-2.119,16.089,16.089,0,0,1-1,2.372q-.361.674-.542,1Zm7.778-.193a2.881,2.881,0,0,0-1.686-.289,4.554,4.554,0,0,0,1.493.337,1.168,1.168,0,0,0,.217-.012q0-.012-.024-.036Z" transform="translate(-2.571 -2.204)" fill="#fff"/>
</svg>
