<svg xmlns="http://www.w3.org/2000/svg" xmlns:xlink="http://www.w3.org/1999/xlink" width="501" height="375" viewBox="0 0 501 375">
  <defs>
    <filter id="Rectangle_1864" x="0" y="0" width="501" height="375" filterUnits="userSpaceOnUse">
      <feOffset dy="12" input="SourceAlpha"/>
      <feGaussianBlur stdDeviation="6" result="blur"/>
      <feFlood flood-color="#5a6980" flood-opacity="0.082"/>
      <feComposite operator="in" in2="blur"/>
      <feComposite in="SourceGraphic"/>
    </filter>
    <clipPath id="clip-path">
      <path id="Path_442" data-name="Path 442" d="M0,0H393.512V92.88H361.158L342.267,185.25H0Z" fill="#fff" stroke="#707070" stroke-width="1"/>
    </clipPath>
    <linearGradient id="linear-gradient" x1="0.5" x2="0.5" y2="1" gradientUnits="objectBoundingBox">
      <stop offset="0" stop-color="#ffb43c"/>
      <stop offset="1" stop-color="#fc6e8e"/>
    </linearGradient>
  </defs>
  <g id="Group_6490" data-name="Group 6490" transform="translate(-1056 -2823)">
    <g transform="matrix(1, 0, 0, 1, 1056, 2823)" filter="url(#Rectangle_1864)">
      <rect id="Rectangle_1864-2" data-name="Rectangle 1864" width="465" height="339" rx="20" transform="translate(18 6)" fill="#fff"/>
    </g>
    <g id="Group_6489" data-name="Group 6489" transform="translate(1.565 13.889)">
      <path id="Path_441" data-name="Path 441" d="M-10042.746-19161.238v177.623h400.99" transform="translate(11152.223 22005.137)" fill="none" stroke="#025f89" stroke-linecap="round" stroke-width="1"/>
      <text id="Pressure" transform="translate(1101.5 2886.472) rotate(-90)" fill="#444f5a" font-size="9" font-family="Muli-Bold, Muli" font-weight="700"><tspan x="0" y="0">Pressure</tspan></text>
      <text id="Time" transform="translate(1507.302 3034.122)" fill="#444f5a" font-size="9" font-family="Muli-Bold, Muli" font-weight="700"><tspan x="-20" y="0">Time</tspan></text>
      <g id="Mask_Group_4972" data-name="Mask Group 4972" transform="translate(1109.184 2928.899)" clip-path="url(#clip-path)">
        <path id="Path_440" data-name="Path 440" d="M774.129,178.869c-10.791,0-14.814-27.384-21.421-89.869-3.283-31.052-8.779-83.023-15.47-84.5C730.58,5.979,725.085,57.947,721.8,89c-6.607,62.487-10.63,89.872-21.421,89.872S685.57,151.486,678.964,89C675.681,57.951,670.187,5.979,663.5,4.5c-6.657,1.486-12.151,53.451-15.433,84.5-6.606,62.487-10.628,89.872-21.418,89.872S611.834,151.485,605.228,89c-3.283-31.05-8.777-83.018-15.467-84.5C583.1,5.984,577.61,57.949,574.328,89c-6.606,62.487-10.628,89.872-21.417,89.872S538.1,151.485,531.5,89c-3.282-31.05-8.775-83.018-15.465-84.5C509.374,5.987,503.882,57.952,500.6,89c-6.6,62.485-10.626,89.869-21.414,89.869S464.378,151.486,457.775,89C454.493,57.955,449,5.989,442.313,4.5,435.655,5.984,430.162,57.951,426.88,89c-6.605,62.485-10.627,89.869-21.416,89.869S390.656,151.485,384.051,89c-3.281-31.047-8.773-83.01-15.462-84.5C361.933,5.987,356.44,57.952,353.158,89c-6.6,62.485-10.626,89.869-21.414,89.869S316.934,151.485,310.33,89c-3.282-31.048-8.775-83.013-15.464-84.5C288.209,5.987,282.717,57.95,279.435,89c-6.605,62.487-10.627,89.872-21.416,89.872S243.211,151.485,236.606,89c-3.282-31.049-8.774-83.015-15.464-84.5C214.485,5.984,208.992,57.951,205.71,89c-6.605,62.485-10.627,89.869-21.416,89.869S169.486,151.486,162.881,89C159.6,57.954,154.107,5.987,147.418,4.5c-6.656,1.491-12.148,53.454-15.43,84.5-6.6,62.485-10.625,89.869-21.413,89.869S95.767,151.485,89.163,89C85.881,57.953,80.389,5.99,73.7,4.5,67.045,5.989,61.552,57.953,58.271,89c-6.6,62.485-10.625,89.869-21.413,89.869S22.05,151.485,15.446,89C12.165,57.953,6.672,5.989-.016,4.5L0-1.5c10.787,0,14.809,27.384,21.413,89.869,3.281,31.047,8.773,83.01,15.462,84.5,6.656-1.491,12.148-53.454,15.429-84.5C58.908,25.884,62.93-1.5,73.717-1.5S88.525,25.884,95.13,88.369c3.281,31.047,8.773,83.01,15.462,84.5,6.656-1.491,12.148-53.454,15.429-84.5C132.625,25.884,136.647-1.5,147.434-1.5s14.81,27.385,21.414,89.872c3.281,31.046,8.774,83.007,15.462,84.5,6.657-1.486,12.151-53.452,15.433-84.5C206.348,25.884,210.37-1.5,221.159-1.5s14.81,27.385,21.414,89.872c3.281,31.046,8.774,83.008,15.462,84.5,6.657-1.486,12.151-53.454,15.433-84.5C280.073,25.883,284.094-1.5,294.882-1.5s14.81,27.384,21.414,89.869c3.282,31.048,8.774,83.013,15.464,84.5,6.657-1.488,12.149-53.453,15.431-84.5C353.8,25.884,357.818-1.5,368.605-1.5s14.809,27.384,21.413,89.869c3.281,31.047,8.773,83.01,15.462,84.5,6.657-1.486,12.15-53.452,15.433-84.5C427.518,25.884,431.54-1.5,442.329-1.5s14.809,27.385,21.413,89.872c3.281,31.045,8.772,83,15.461,84.5,6.657-1.488,12.149-53.453,15.431-84.5C501.238,25.884,505.259-1.5,516.047-1.5s14.811,27.385,21.416,89.872c3.282,31.047,8.775,83.01,15.464,84.5,6.658-1.483,12.152-53.453,15.434-84.5C574.967,25.883,578.989-1.5,589.777-1.5s14.812,27.384,21.417,89.869c3.283,31.05,8.777,83.018,15.467,84.5,6.658-1.483,12.152-53.453,15.435-84.5C648.7,25.883,652.723-1.5,663.512-1.5s14.813,27.385,21.419,89.872c3.283,31.049,8.777,83.015,15.467,84.5,6.659-1.478,12.155-53.451,15.438-84.5C722.442,25.883,726.465-1.5,737.255-1.5s14.814,27.384,21.421,89.869c3.283,31.052,8.779,83.023,15.47,84.5Z" transform="translate(-157.516 5.091)" fill="url(#linear-gradient)"/>
      </g>
      <path id="Polygon_5" data-name="Polygon 5" d="M4,0,8,7H0Z" transform="translate(1105.809 2838.074)" fill="#025f89"/>
      <path id="Polygon_6" data-name="Polygon 6" d="M4.027,0,8.054,6.9H0Z" transform="translate(1517.369 3017.067) rotate(90)" fill="#025f89"/>
    </g>
  </g>
</svg>
