<svg xmlns="http://www.w3.org/2000/svg" width="47.975" height="41.978" viewBox="0 0 47.975 41.978">
  <path id="Icon_awesome-quote-left" data-name="Icon awesome-quote-left" d="M4.5,23.239h7.5v6a6,6,0,0,1-6,6h-.75A2.243,2.243,0,0,0,3,37.482v4.5a2.243,2.243,0,0,0,2.249,2.249H6A14.988,14.988,0,0,0,20.989,29.236V6.748a4.5,4.5,0,0,0-4.5-4.5H4.5A4.5,4.5,0,0,0,0,6.748V18.741A4.5,4.5,0,0,0,4.5,23.239Zm26.986,0h7.5v6a6,6,0,0,1-6,6h-.75a2.243,2.243,0,0,0-2.249,2.249v4.5a2.243,2.243,0,0,0,2.249,2.249h.75A14.988,14.988,0,0,0,47.975,29.236V6.748a4.5,4.5,0,0,0-4.5-4.5H31.484a4.5,4.5,0,0,0-4.5,4.5V18.741A4.5,4.5,0,0,0,31.484,23.239Z" transform="translate(0 -2.25)" fill="#72bfe6" opacity="0.1"/>
</svg>
